<svg xmlns="http://www.w3.org/2000/svg" width="132" height="62" viewBox="0 0 132 62" fill="none"><g clip-path="url(#clip0_2002_1994)"><path d="M56.4922 41.3479V24.0719H49.9683V20.7002H66.924V24.0719H60.368V41.3479H56.4922Z" fill="white"></path><path d="M79.6792 41.3481V20.7003H85.7899L89.0077 32.1974C89.128 32.5986 89.2444 33.0525 89.3648 33.551C89.4851 34.0535 89.5975 34.5358 89.7058 34.9977C89.8141 35.4597 89.8984 35.8609 89.9586 36.2014H90.1953C90.2354 35.9015 90.2956 35.5286 90.3718 35.0869C90.4521 34.6452 90.5444 34.171 90.6567 33.6564C90.765 33.1457 90.8894 32.6473 91.0299 32.165L94.2477 20.6963H100.298V41.344H96.4263C96.4263 41.344 96.4263 25.7093 96.4344 25.1257L91.6879 41.344H88.113L83.4066 25.1865C83.4106 25.7539 83.4066 41.344 83.4066 41.344H79.6792V41.3481Z" fill="white"></path><path d="M118.45 38.0086H125.214C126.029 38.0086 126.699 37.7817 127.224 37.3319C127.75 36.882 128.015 36.1728 128.015 35.2083C128.015 34.645 127.907 34.1547 127.686 33.7332C127.465 33.3117 127.136 32.9875 126.687 32.7565C126.241 32.5255 125.668 32.4121 124.974 32.4121H118.45V38.0127V38.0086ZM118.45 29.1295H124.709C125.307 29.1295 125.808 29.0201 126.213 28.7972C126.619 28.5784 126.928 28.2744 127.136 27.8935C127.345 27.5125 127.449 27.0911 127.449 26.6291C127.449 25.7456 127.216 25.0932 126.747 24.6717C126.282 24.2502 125.668 24.0395 124.913 24.0395H118.446V29.1255L118.45 29.1295ZM114.385 41.3479V20.7002H125.531C126.623 20.7002 127.602 20.9109 128.468 21.3324C129.331 21.7539 130.013 22.3455 130.51 23.1074C131.008 23.8693 131.257 24.7609 131.257 25.7861C131.257 26.5683 131.108 27.2815 130.811 27.9218C130.515 28.5662 130.109 29.1011 129.604 29.5307C129.098 29.9643 128.528 30.2885 127.89 30.5074V30.6289C128.645 30.7911 129.323 31.095 129.917 31.5489C130.51 31.9987 130.98 32.5701 131.317 33.2631C131.654 33.9561 131.823 34.7544 131.823 35.6582C131.823 36.9428 131.538 38.0046 130.972 38.8475C130.406 39.6905 129.652 40.3186 128.709 40.7279C127.766 41.1413 126.707 41.3439 125.535 41.3439H114.389L114.385 41.3479Z" fill="white"></path><path d="M0.818359 0L33.5503 18.6944V39.4678L41.7473 44.1404V50.3732L21.317 62L0.818359 50.0409V20.7653L8.98329 25.4298V44.8374L21.317 51.8646L30.0917 47.2163L17.2245 39.8609V30.1348L25.3733 34.7912V24.0357L8.54194 14.265L0.818359 10.0463V0Z" fill="white"></path></g><defs><clipPath id="clip0_2002_1994"><rect width="131" height="62" fill="white" transform="translate(0.818359)"></rect></clipPath></defs></svg>